# xmcd
#
# Track frame offsets:
#  150
#  17713
#  35891
#  49500
#  67960
#  85901
#  97827
#  110839
#  131399
#  146174
#  164150
#  190558
#
# Disc length: 2754 seconds
#
# Revision: 0
# Processed by: cddbd v1.4PL0 Copyright (c) Steve Scherf et al.
# Submitted via: AltoMP3_Maker 3.0
#
DISCID=a30ac00c
DTITLE=Martina McBride - Martina
DYEAR=1900
DGENRE=
TTITLE0=So Magical
TTITLE1=She's a Buterfly
TTITLE2=City of Love
TTITLE3=This One's for the Girls
TTITLE4=How Far
TTITLE5=Reluctant Daughter
TTITLE6=Wearing White
TTITLE7=When You Love Me
TTITLE8=In My Daughter's Eyes
TTITLE9=Learning to Fall
TTITLE10=God's Will
TTITLE11=Over the Rainbow
EXTD=
EXTT0=
EXTT1=
EXTT2=
EXTT3=
EXTT4=
EXTT5=
EXTT6=
EXTT7=
EXTT8=
EXTT9=
EXTT10=
EXTT11=
PLAYORDER=
